<?xml version="1.0" encoding="UTF-8"?> <svg xmlns="http://www.w3.org/2000/svg" xmlns:xlink="http://www.w3.org/1999/xlink" width="69px" height="67px" viewBox="0 0 69 67"><!-- Generator: Sketch 59.1 (86144) - https://sketch.com --><title>Shape</title><desc>Created with Sketch.</desc><g id="Page-1" stroke="none" stroke-width="1" fill="none" fill-rule="evenodd"><g id="Segments-circle" transform="translate(-64.000000, 0.000000)" fill="#8872A3"><path d="M119.310684,31.2362001 C121.169755,41.7904341 117.26266,52.5358057 109.050664,59.4264889 C100.838667,66.3171721 89.5780822,68.2989952 79.5070149,64.6354443 L84.2919603,51.4825474 C89.6646461,53.4360948 95.669863,52.3786118 100.051637,48.7018667 C104.433411,45.0251215 106.517624,39.2947674 105.526712,33.6644749 L119.310684,31.2362001 Z M75.0279454,0.622185885 L84.026972,11.3468081 C79.6451977,15.0235532 77.5609853,20.7539073 78.5518969,26.3841999 C79.5428084,32.0144925 83.4638128,36.6873636 88.8364986,38.640911 L84.0515532,51.7938079 C73.980486,48.1302571 66.6269957,39.3667087 64.7679249,28.8124746 C62.9088541,18.2582406 66.815949,7.51286906 75.0279454,0.622185885 Z M113.590261,5.69685872 C123.661328,9.36040957 131.014818,18.123958 132.873889,28.678192 L119.089917,31.1064667 C118.099006,25.4761742 114.178001,20.8033031 108.805316,18.8497557 C103.43263,16.8962082 97.4274129,17.9536913 93.0456387,21.6304364 L84.0466121,10.9058142 C92.2586086,4.015131 103.519194,2.03330788 113.590261,5.69685872 Z" id="Shape"></path></g></g></svg> 